<?xml version="1.0" encoding="UTF-8"?>
<svg id="Layer_2" data-name="Layer 2" xmlns="http://www.w3.org/2000/svg" viewBox="0 0 515.57 304.77">
  <defs>
    <style>
      .cls-1 {
        fill: none;
        stroke: #e6d2bf;
        stroke-miterlimit: 10;
      }
    </style>
  </defs>
  <g id="Layer_3" data-name="Layer 3">
    <g>
      <path class="cls-1" d="M.72.5h69.79l56.48,150.88c6.86,18.56,12.51,37.11,18.96,62.93,7.67-28.64,13.31-45.18,19.77-62.93L221.39.5h68.18l-109.73,298.52h-67.37L.72.5Z"/>
      <path class="cls-1" d="M355.72,158.64v-41.96c.81-.81,1.61-1.21,2.42-2.02l64.95-56.88h-112.55V.5h194.44v52.04l-62.93,55.27c40.34,12.1,73.02,44.38,73.02,95.21,0,62.93-50.83,101.26-111.34,101.26s-106.9-35.5-106.9-102.87h64.55c0,29.45,17.75,45.18,43.97,45.18s42.76-17.35,42.76-43.97c0-23.8-13.72-43.97-48.81-43.97h-43.57Z"/>
    </g>
  </g>
</svg>